<?xml version="1.0" standalone="no"?>
<!DOCTYPE svg PUBLIC "-//W3C//DTD SVG 20010904//EN"
 "http://www.w3.org/TR/2001/REC-SVG-20010904/DTD/svg10.dtd">
<svg version="1.0" xmlns="http://www.w3.org/2000/svg"
 width="1080.000000pt" height="1080.000000pt" viewBox="0 0 1080.000000 1080.000000"
 preserveAspectRatio="xMidYMid meet">

<g transform="translate(0.000000,1080.000000) scale(0.100000,-0.100000)"
fill="#000000" stroke="none">
<path d="M5865 9748 c-3 -7 -31 -134 -62 -283 -49 -230 -58 -285 -58 -375 0
-99 2 -110 32 -171 39 -78 102 -141 179 -176 74 -33 203 -56 280 -48 136 14
258 110 308 242 25 68 136 577 136 627 0 31 -27 45 -107 53 -65 7 -59 20 -114
-247 -78 -385 -94 -429 -177 -478 -105 -61 -274 -17 -331 87 -37 67 -32 129
34 445 43 202 56 283 48 294 -5 9 -36 22 -69 29 -76 16 -94 16 -99 1z"/>
<path d="M4846 9561 c-57 -9 -61 -21 -44 -143 l14 -105 -106 -12 c-59 -7 -111
-18 -119 -26 -16 -16 -7 -118 12 -134 9 -6 48 -5 121 5 60 7 110 13 111 11 1
-1 8 -51 16 -112 l14 -110 69 2 c37 1 73 6 79 12 8 8 7 41 -2 117 -7 58 -11
107 -9 109 2 3 50 11 105 19 56 7 107 17 113 21 15 9 8 121 -8 137 -7 7 -46 6
-117 -2 -63 -8 -109 -9 -114 -4 -5 5 -14 53 -20 108 -6 54 -14 103 -17 107 -6
10 -37 10 -98 0z"/>
<path d="M6982 9448 c-8 -11 -180 -413 -267 -628 -12 -30 -39 -93 -59 -140
-20 -46 -36 -93 -36 -103 0 -12 20 -27 67 -48 37 -16 74 -28 82 -27 16 3 25
24 203 448 158 375 178 425 178 438 0 14 -114 72 -141 72 -9 0 -21 -6 -27 -12z"/>
<path d="M3959 9292 c-24 -16 -63 -50 -85 -75 -37 -41 -42 -45 -47 -27 -4 14
-14 20 -35 20 -37 0 -121 -37 -129 -56 -3 -9 13 -59 35 -112 23 -53 82 -196
133 -317 50 -121 95 -228 100 -237 13 -24 29 -23 104 11 l64 30 -13 43 c-7 24
-37 99 -66 168 -77 185 -83 206 -78 260 6 62 40 108 105 141 58 30 62 47 29
123 -30 67 -48 71 -117 28z"/>
<path d="M7529 9117 c-113 -100 -313 -276 -445 -392 -318 -279 -359 -318 -351
-338 6 -16 103 -77 122 -77 6 0 33 22 61 48 28 26 120 108 204 182 690 606
751 662 748 679 -4 18 -95 81 -118 81 -8 0 -108 -83 -221 -183z"/>
<path d="M7768 8833 c-70 -82 -161 -188 -203 -237 -42 -50 -90 -119 -108 -155
-29 -60 -32 -75 -32 -161 0 -83 3 -102 27 -154 40 -83 155 -196 244 -238 62
-30 78 -33 159 -33 82 0 97 3 158 33 39 19 91 57 125 90 100 99 387 440 389
464 2 17 -11 34 -49 66 -29 23 -59 42 -67 42 -9 0 -97 -95 -196 -211 -99 -116
-195 -225 -214 -241 -103 -91 -214 -88 -319 7 -81 72 -101 159 -58 250 24 51
48 81 274 343 83 97 132 161 132 175 0 25 -92 107 -119 107 -10 0 -72 -65
-143 -147z"/>
<path d="M3263 8945 c-99 -30 -197 -115 -243 -210 -22 -43 -25 -64 -25 -150 0
-94 2 -105 33 -168 65 -132 180 -215 311 -225 90 -6 167 12 241 57 116 70 195
170 202 257 3 34 0 40 -27 53 -16 8 -48 15 -70 15 -38 1 -40 -1 -66 -54 -64
-133 -207 -194 -325 -139 -44 21 -45 23 -27 39 10 9 106 72 213 140 226 143
230 146 230 175 0 57 -147 189 -240 215 -49 14 -157 11 -207 -5z m186 -171
l53 -27 -89 -57 c-48 -31 -121 -78 -161 -104 -40 -26 -77 -44 -82 -41 -15 9
-12 91 4 130 28 66 115 124 187 125 19 0 59 -12 88 -26z"/>
<path d="M2631 8444 c-64 -23 -109 -54 -162 -111 -54 -57 -73 -91 -90 -157
-11 -43 -13 -46 -29 -31 -9 8 -23 15 -31 15 -17 0 -109 -90 -109 -107 0 -7
114 -123 253 -260 399 -393 442 -433 463 -433 20 0 114 87 114 105 0 5 -51 60
-112 122 -99 99 -109 113 -87 113 43 0 144 57 194 111 25 27 58 75 73 107 23
49 27 70 27 152 0 85 -3 101 -29 155 -38 77 -124 163 -201 201 -50 24 -74 29
-145 31 -58 2 -99 -2 -129 -13z m204 -189 c184 -108 161 -352 -39 -406 -80
-22 -184 25 -236 107 -59 93 -48 187 30 265 72 72 160 85 245 34z"/>
<path d="M8687 8218 c-8 -13 -52 -130 -97 -262 l-83 -238 -293 7 c-346 9 -334
13 -260 -94 l47 -68 151 -6 c83 -4 186 -7 229 -7 78 0 78 0 69 -22 -5 -13 -39
-108 -76 -212 -66 -190 -66 -190 -49 -220 30 -52 86 -116 101 -116 20 0 32 30
128 310 l83 245 276 -4 c318 -4 312 -6 258 78 -57 89 -47 86 -277 90 -112 1
-204 4 -204 5 0 1 27 78 60 172 82 230 82 225 26 302 -50 67 -68 75 -89 40z"/>
<path d="M2071 7740 c-178 -65 -298 -276 -261 -457 25 -121 105 -218 228 -276
60 -28 77 -32 157 -32 80 0 97 3 155 31 160 76 262 262 233 428 -15 89 -47
147 -115 212 -79 76 -150 106 -258 111 -67 3 -96 -1 -139 -17z m216 -186 c89
-42 145 -141 129 -226 -10 -52 -64 -129 -111 -156 -33 -19 -52 -22 -105 -20
-151 8 -261 149 -215 277 28 80 77 128 155 152 36 10 87 1 147 -27z"/>
<path d="M1319 7093 c-16 -37 -28 -74 -27 -82 2 -9 49 -34 118 -62 63 -26 266
-108 450 -184 184 -76 347 -140 362 -142 25 -5 30 -1 49 43 12 27 22 65 23 83
l1 35 -155 64 c-393 161 -770 312 -780 312 -6 0 -24 -30 -41 -67z"/>
<path d="M9215 6860 c-121 -31 -316 -82 -433 -112 -117 -31 -219 -61 -225 -67
-9 -9 0 -57 37 -204 82 -322 106 -376 216 -481 116 -111 255 -147 425 -111
191 40 338 183 376 363 20 99 7 216 -52 442 -29 113 -57 211 -62 218 -15 19
-47 14 -282 -48z m174 -187 c67 -254 73 -315 45 -400 -32 -97 -89 -154 -195
-195 -153 -59 -311 2 -392 149 -21 40 -102 312 -94 319 1 1 126 34 277 73 151
39 289 75 305 80 17 5 33 9 37 10 4 1 12 -16 17 -36z"/>
<path d="M1627 6649 c-75 -18 -176 -100 -216 -177 -45 -86 -55 -235 -20 -327
29 -77 104 -156 187 -197 58 -29 77 -33 166 -36 131 -5 193 16 270 92 90 87
131 195 130 337 0 73 -4 95 -28 143 -16 32 -35 60 -44 63 -14 6 -118 -42 -129
-60 -3 -4 5 -29 18 -55 39 -82 26 -192 -34 -276 -19 -27 -106 -76 -136 -76
-17 0 -15 10 55 304 30 126 53 234 51 241 -12 31 -179 46 -270 24z m93 -168
c0 -5 -18 -83 -39 -173 -22 -90 -41 -172 -43 -183 -3 -17 -8 -15 -44 18 -85
76 -89 205 -10 290 40 43 136 76 136 48z"/>
<path d="M1296 5928 c-12 -39 -14 -147 -3 -156 12 -10 441 -216 487 -234 22
-8 -7 -22 -230 -110 -140 -55 -261 -105 -267 -110 -19 -15 -18 -167 1 -174 7
-3 137 45 287 106 151 62 310 125 354 142 44 17 86 35 93 41 9 7 12 34 10 91
l-3 81 -50 25 c-27 14 -97 47 -155 74 -58 27 -166 78 -240 114 -183 87 -260
122 -271 122 -5 0 -11 -6 -13 -12z"/>
<path d="M9059 5800 c-146 -26 -257 -132 -295 -282 -21 -80 -14 -201 15 -279
23 -61 84 -139 108 -139 26 0 103 69 103 92 0 11 -11 33 -25 50 -34 40 -59
130 -51 184 12 89 68 167 134 188 l22 7 0 -274 c0 -232 2 -276 15 -287 21 -17
142 -5 212 21 70 27 155 105 190 176 35 73 44 201 19 285 -31 109 -121 205
-224 241 -59 20 -162 28 -223 17z m200 -194 c42 -22 89 -81 97 -121 18 -100
-21 -197 -96 -235 -21 -11 -42 -20 -45 -20 -3 0 -5 88 -5 195 0 129 4 195 10
195 6 0 24 -7 39 -14z"/>
<path d="M1632 5139 c-109 -21 -216 -96 -264 -186 -78 -143 -46 -346 71 -456
63 -59 114 -84 200 -99 170 -29 341 53 413 200 29 59 33 78 36 164 4 107 -12
182 -55 255 -26 45 -107 123 -128 123 -15 0 -95 -85 -95 -101 0 -6 19 -33 43
-59 76 -84 96 -193 53 -286 -19 -41 -83 -110 -93 -100 -1 1 -23 121 -49 266
-26 146 -51 271 -57 278 -11 13 -14 13 -75 1z m-22 -219 c0 -10 13 -92 30
-182 16 -89 30 -165 30 -167 0 -10 -70 13 -102 34 -107 71 -109 258 -4 325 33
21 46 18 46 -10z"/>
<path d="M8802 5046 c-69 -78 -122 -234 -122 -358 0 -160 92 -268 228 -268 90
0 145 56 217 221 73 168 99 195 145 149 40 -40 19 -184 -40 -271 -16 -24 -30
-51 -30 -61 0 -9 23 -35 51 -59 59 -49 67 -48 115 24 49 71 75 159 81 270 5
78 2 106 -12 144 -49 127 -186 188 -295 130 -57 -30 -96 -89 -150 -223 -57
-140 -79 -163 -125 -128 -17 13 -20 26 -19 87 1 58 7 85 32 139 17 37 42 82
56 101 14 19 26 41 26 50 0 21 -82 87 -107 87 -12 0 -35 -16 -51 -34z"/>
<path d="M8590 4375 c-27 -64 -34 -109 -18 -122 7 -5 163 -60 346 -122 257
-87 337 -110 347 -101 8 6 24 41 36 77 18 55 19 67 8 78 -13 11 -668 235 -689
235 -6 0 -19 -20 -30 -45z"/>
<path d="M1800 4344 c-276 -53 -448 -283 -410 -550 11 -82 33 -143 117 -329
92 -204 96 -210 121 -213 20 -3 827 354 860 380 6 6 12 16 12 24 0 21 -175
400 -210 453 -62 97 -174 189 -264 217 -53 16 -182 26 -226 18z m212 -211 c35
-15 75 -44 99 -70 36 -40 100 -158 153 -286 l15 -38 -62 -28 c-34 -15 -82 -37
-107 -49 -218 -99 -406 -184 -412 -185 -11 -3 -112 218 -126 273 -20 83 -21
93 -11 144 20 106 79 185 174 232 101 49 177 51 277 7z"/>
<path d="M8329 4201 c-57 -36 -147 -132 -184 -195 -75 -128 -97 -281 -55 -374
29 -64 114 -140 221 -199 361 -198 487 -265 511 -270 23 -5 30 1 57 43 33 53
40 101 16 110 -20 8 -19 21 3 28 32 11 119 106 150 165 105 198 40 412 -156
508 -71 36 -82 38 -167 38 -110 -1 -160 -21 -240 -96 -87 -83 -135 -185 -135
-292 l0 -49 -32 20 c-46 28 -78 87 -78 142 0 90 90 228 185 281 60 34 66 49
39 102 -38 76 -65 83 -135 38z m478 -343 c114 -57 149 -165 91 -283 -57 -114
-173 -159 -274 -107 -95 48 -139 146 -109 237 27 77 62 122 118 150 63 31 116
32 174 3z"/>
<path d="M9423 4131 c-36 -23 -60 -83 -49 -126 24 -95 165 -107 203 -16 44
104 -61 200 -154 142z"/>
<path d="M8071 3371 c-23 -27 -41 -56 -41 -65 0 -8 70 -79 155 -157 160 -147
195 -193 195 -257 0 -102 -117 -216 -196 -193 -56 16 -89 40 -244 180 -85 78
-163 141 -172 141 -18 0 -108 -97 -108 -117 0 -6 80 -84 177 -173 211 -191
252 -215 363 -215 64 1 83 5 128 30 89 48 191 182 192 250 0 28 16 50 24 36 4
-6 18 -11 30 -11 28 0 108 86 104 111 -3 15 -70 78 -343 324 -48 44 -109 99
-134 122 -25 23 -56 43 -68 43 -13 0 -36 -18 -62 -49z"/>
<path d="M2624 3201 c-102 -26 -217 -121 -270 -222 -26 -49 -29 -63 -29 -159
0 -93 3 -112 26 -161 46 -98 182 -209 257 -209 12 0 22 -3 22 -8 0 -4 -49 -57
-110 -117 -69 -69 -110 -117 -110 -130 0 -23 88 -115 110 -115 19 0 720 701
720 720 0 8 -17 34 -38 58 -29 33 -44 42 -69 42 -19 0 -36 -7 -41 -16 -7 -12
-11 -4 -15 30 -14 99 -103 209 -211 260 -64 30 -180 43 -242 27z m180 -185
c51 -21 104 -82 123 -143 16 -52 16 -57 -1 -106 -25 -72 -67 -121 -128 -151
-92 -46 -182 -27 -251 54 -61 72 -71 135 -33 215 56 118 183 176 290 131z"/>
<path d="M7414 2722 c-150 -53 -284 -201 -284 -315 0 -32 4 -39 28 -48 15 -6
47 -12 70 -12 l44 -2 20 54 c38 101 141 174 244 173 47 0 105 -20 117 -40 3
-4 -94 -77 -216 -162 -126 -88 -223 -163 -225 -173 -5 -28 70 -120 132 -161
81 -53 169 -73 259 -58 92 16 155 52 226 128 63 67 88 121 98 214 15 146 -82
316 -221 387 -68 36 -214 43 -292 15z m345 -385 c3 -123 -142 -233 -255 -193
-96 33 -99 28 79 153 175 122 175 122 176 40z"/>
<path d="M3261 2660 c-22 -10 -23 -13 -17 -73 4 -34 12 -67 17 -73 6 -8 30
-10 68 -7 98 9 200 -49 246 -140 24 -50 34 -130 17 -141 -5 -3 -35 12 -68 34
-224 145 -396 250 -408 250 -19 0 -54 -50 -82 -119 -32 -76 -33 -197 -3 -276
29 -77 104 -156 187 -197 62 -31 73 -33 172 -33 92 0 111 3 155 25 69 35 155
123 191 195 26 55 29 69 29 165 0 96 -2 110 -29 163 -38 74 -123 155 -210 197
-59 29 -80 34 -155 37 -47 2 -97 -2 -110 -7z m26 -423 c54 -35 126 -80 161
-101 34 -21 59 -42 56 -48 -12 -19 -89 -48 -129 -48 -103 0 -205 99 -205 199
0 29 8 61 16 61 2 0 47 -28 101 -63z"/>
<path d="M6873 2405 c-37 -17 -53 -31 -53 -44 0 -11 38 -102 85 -203 73 -158
85 -192 85 -238 0 -68 -27 -112 -96 -156 -30 -19 -54 -41 -54 -49 0 -8 11 -39
24 -70 22 -49 28 -55 54 -55 36 0 116 57 157 111 27 37 29 38 42 19 8 -11 21
-20 28 -20 25 0 125 48 131 63 3 8 -62 160 -144 338 -170 368 -157 352 -259
304z"/>
<path d="M4089 2238 c-93 -127 -519 -783 -519 -799 0 -23 48 -46 113 -55 l42
-6 205 307 c112 168 205 303 207 298 1 -4 12 -168 23 -363 14 -229 26 -359 33
-367 10 -10 116 -43 138 -43 9 0 59 70 260 369 140 207 164 239 166 215 2 -16
12 -180 23 -364 14 -231 24 -338 33 -346 14 -13 94 -34 132 -34 14 0 28 6 30
13 8 19 -53 999 -62 1007 -9 8 -134 40 -157 40 -7 0 -103 -133 -212 -295 -108
-162 -199 -293 -202 -291 -2 3 -14 161 -27 352 -17 249 -27 350 -37 360 -11
10 -123 44 -148 44 -5 0 -23 -19 -41 -42z"/>
<path d="M5963 1933 c-52 -7 -56 -20 -39 -120 25 -139 33 -126 -95 -147 -67
-11 -113 -24 -116 -32 -8 -22 18 -125 33 -131 8 -3 61 2 117 10 56 9 104 13
108 9 3 -4 13 -52 22 -106 9 -54 20 -103 26 -109 11 -11 129 7 144 22 5 5 1
52 -11 119 l-19 110 61 11 c34 6 82 14 108 17 65 9 72 20 59 90 -6 32 -15 62
-20 67 -5 5 -54 1 -120 -11 l-111 -19 -5 21 c-2 11 -11 59 -20 104 -8 46 -17
88 -21 93 -5 9 -39 10 -101 2z"/>
</g>
</svg>
